# Blender 5.0.1
# www.blender.org
mtllib Sphere.mtl
o Sphere
v 0.000000 1.000000 0.000000
v 0.000000 0.831470 -0.555570
v 0.000000 0.555570 -0.831470
v 0.000000 0.195090 -0.980785
v 0.000000 0.000000 -1.000000
v 0.000000 -0.195090 -0.980785
v 0.000000 -0.555570 -0.831470
v 0.000000 -1.000000 0.000000
v 0.038060 0.980785 -0.191342
v 0.074658 0.923880 -0.375330
v 0.108386 0.831470 -0.544895
v 0.137950 0.707107 -0.693520
v 0.162212 0.555570 -0.815493
v 0.180240 0.382683 -0.906127
v 0.191342 0.195090 -0.961940
v 0.195090 0.000000 -0.980785
v 0.191342 -0.195090 -0.961940
v 0.180240 -0.382683 -0.906127
v 0.162212 -0.555570 -0.815493
v 0.137950 -0.707107 -0.693520
v 0.108386 -0.831470 -0.544895
v 0.074658 -0.923880 -0.375330
v 0.038060 -0.980785 -0.191342
v 0.074658 0.980785 -0.180240
v 0.146447 0.923880 -0.353553
v 0.212608 0.831470 -0.513280
v 0.270598 0.707107 -0.653281
v 0.318190 0.555570 -0.768178
v 0.353553 0.382683 -0.853553
v 0.375330 0.195090 -0.906127
v 0.382683 0.000000 -0.923879
v 0.375330 -0.195090 -0.906127
v 0.353553 -0.382683 -0.853553
v 0.318190 -0.555570 -0.768178
v 0.270598 -0.707107 -0.653281
v 0.212608 -0.831470 -0.513280
v 0.146447 -0.923880 -0.353553
v 0.074658 -0.980785 -0.180240
v 0.108386 0.980785 -0.162212
v 0.212608 0.923880 -0.318190
v 0.308658 0.831470 -0.461940
v 0.392847 0.707107 -0.587938
v 0.461940 0.555570 -0.691342
v 0.513280 0.382683 -0.768178
v 0.544895 0.195090 -0.815493
v 0.555570 0.000000 -0.831469
v 0.544895 -0.195090 -0.815493
v 0.513280 -0.382683 -0.768178
v 0.461940 -0.555570 -0.691342
v 0.392847 -0.707107 -0.587938
v 0.308658 -0.831470 -0.461940
v 0.212608 -0.923880 -0.318190
v 0.108386 -0.980785 -0.162212
v 0.137950 0.980785 -0.137950
v 0.270598 0.923880 -0.270598
v 0.392847 0.831470 -0.392847
v 0.500000 0.707107 -0.500000
v 0.587938 0.555570 -0.587938
v 0.653281 0.382683 -0.653281
v 0.693520 0.195090 -0.693520
v 0.707107 0.000000 -0.707107
v 0.693520 -0.195090 -0.693520
v 0.653281 -0.382683 -0.653281
v 0.587938 -0.555570 -0.587938
v 0.500000 -0.707107 -0.500000
v 0.392847 -0.831470 -0.392847
v 0.270598 -0.923880 -0.270598
v 0.137950 -0.980785 -0.137950
v 0.162212 0.980785 -0.108386
v 0.318190 0.923880 -0.212608
v 0.461940 0.831470 -0.308658
v 0.587938 0.707107 -0.392847
v 0.691342 0.555570 -0.461940
v 0.768178 0.382683 -0.513280
v 0.815493 0.195090 -0.544895
v 0.831470 0.000000 -0.555570
v 0.815493 -0.195090 -0.544895
v 0.768178 -0.382683 -0.513280
v 0.691342 -0.555570 -0.461940
v 0.587938 -0.707107 -0.392847
v 0.461940 -0.831470 -0.308658
v 0.318190 -0.923880 -0.212608
v 0.162212 -0.980785 -0.108386
v 0.180240 0.980785 -0.074658
v 0.353553 0.923880 -0.146447
v 0.513280 0.831470 -0.212607
v 0.653281 0.707107 -0.270598
v 0.768178 0.555570 -0.318190
v 0.853553 0.382683 -0.353553
v 0.906127 0.195090 -0.375330
v 0.923879 0.000000 -0.382683
v 0.906127 -0.195090 -0.375330
v 0.853553 -0.382683 -0.353553
v 0.768178 -0.555570 -0.318190
v 0.653281 -0.707107 -0.270598
v 0.513280 -0.831470 -0.212607
v 0.353553 -0.923880 -0.146447
v 0.180240 -0.980785 -0.074658
v 0.191342 0.980785 -0.038060
v 0.375330 0.923880 -0.074658
v 0.544895 0.831470 -0.108386
v 0.693520 0.707107 -0.137950
v 0.815493 0.555570 -0.162212
v 0.906127 0.382683 -0.180240
v 0.961940 0.195090 -0.191342
v 0.980785 0.000000 -0.195090
v 0.961940 -0.195090 -0.191342
v 0.906127 -0.382683 -0.180240
v 0.815493 -0.555570 -0.162212
v 0.693520 -0.707107 -0.137950
v 0.544895 -0.831470 -0.108386
v 0.375330 -0.923880 -0.074658
v 0.191342 -0.980785 -0.038060
v 0.195090 0.980785 0.000000
v 0.382683 0.923880 0.000000
v 0.555570 0.831470 0.000000
v 0.707107 0.707107 -0.000000
v 0.831469 0.555570 0.000000
v 0.923879 0.382683 -0.000000
v 0.980785 0.195090 0.000000
v 1.000000 0.000000 0.000000
v 0.980785 -0.195090 0.000000
v 0.923879 -0.382683 -0.000000
v 0.831469 -0.555570 0.000000
v 0.707107 -0.707107 -0.000000
v 0.555570 -0.831470 0.000000
v 0.382683 -0.923880 0.000000
v 0.195090 -0.980785 0.000000
v 0.191342 0.980785 0.038060
v 0.375330 0.923880 0.074658
v 0.544895 0.831470 0.108386
v 0.693520 0.707107 0.137950
v 0.815493 0.555570 0.162212
v 0.906127 0.382683 0.180240
v 0.961940 0.195090 0.191342
v 0.980785 0.000000 0.195090
v 0.961940 -0.195090 0.191342
v 0.906127 -0.382683 0.180240
v 0.815493 -0.555570 0.162212
v 0.693520 -0.707107 0.137950
v 0.544895 -0.831470 0.108386
v 0.375330 -0.923880 0.074658
v 0.191342 -0.980785 0.038060
v 0.180240 0.980785 0.074658
v 0.353553 0.923880 0.146447
v 0.513280 0.831470 0.212608
v 0.653281 0.707107 0.270598
v 0.768178 0.555570 0.318190
v 0.853553 0.382683 0.353553
v 0.906127 0.195090 0.375330
v 0.923879 0.000000 0.382683
v 0.906127 -0.195090 0.375330
v 0.853553 -0.382683 0.353553
v 0.768178 -0.555570 0.318190
v 0.653281 -0.707107 0.270598
v 0.513280 -0.831470 0.212608
v 0.353553 -0.923880 0.146447
v 0.180240 -0.980785 0.074658
v 0.162212 0.980785 0.108386
v 0.318190 0.923880 0.212608
v 0.461940 0.831470 0.308658
v 0.587938 0.707107 0.392847
v 0.691341 0.555570 0.461940
v 0.768178 0.382683 0.513280
v 0.815493 0.195090 0.544895
v 0.831469 0.000000 0.555570
v 0.815493 -0.195090 0.544895
v 0.768178 -0.382683 0.513280
v 0.691341 -0.555570 0.461940
v 0.587938 -0.707107 0.392847
v 0.461940 -0.831470 0.308658
v 0.318190 -0.923880 0.212608
v 0.162212 -0.980785 0.108386
v 0.137950 0.980785 0.137950
v 0.270598 0.923880 0.270598
v 0.392847 0.831470 0.392847
v 0.500000 0.707107 0.500000
v 0.587938 0.555570 0.587938
v 0.653281 0.382683 0.653281
v 0.693520 0.195090 0.693520
v 0.707106 0.000000 0.707107
v 0.693520 -0.195090 0.693520
v 0.653281 -0.382683 0.653281
v 0.587938 -0.555570 0.587938
v 0.500000 -0.707107 0.500000
v 0.392847 -0.831470 0.392847
v 0.270598 -0.923880 0.270598
v 0.137950 -0.980785 0.137950
v 0.108386 0.980785 0.162212
v 0.212607 0.923880 0.318190
v 0.308658 0.831470 0.461940
v 0.392847 0.707107 0.587938
v 0.461940 0.555570 0.691342
v 0.513280 0.382683 0.768178
v 0.544895 0.195090 0.815493
v 0.555570 0.000000 0.831469
v 0.544895 -0.195090 0.815493
v 0.513280 -0.382683 0.768178
v 0.461940 -0.555570 0.691342
v 0.392847 -0.707107 0.587938
v 0.308658 -0.831470 0.461940
v 0.212607 -0.923880 0.318190
v 0.108386 -0.980785 0.162212
v 0.074658 0.980785 0.180240
v 0.146447 0.923880 0.353553
v 0.212607 0.831470 0.513280
v 0.270598 0.707107 0.653281
v 0.318189 0.555570 0.768178
v 0.353553 0.382683 0.853553
v 0.375330 0.195090 0.906127
v 0.382683 0.000000 0.923879
v 0.375330 -0.195090 0.906127
v 0.353553 -0.382683 0.853553
v 0.318189 -0.555570 0.768178
v 0.270598 -0.707107 0.653281
v 0.212607 -0.831470 0.513280
v 0.146447 -0.923880 0.353553
v 0.074658 -0.980785 0.180240
v 0.038060 0.980785 0.191342
v 0.074658 0.923880 0.375330
v 0.108386 0.831470 0.544895
v 0.137950 0.707107 0.693520
v 0.162212 0.555570 0.815493
v 0.180240 0.382683 0.906127
v 0.191342 0.195090 0.961939
v 0.195090 0.000000 0.980785
v 0.191342 -0.195090 0.961939
v 0.180240 -0.382683 0.906127
v 0.162212 -0.555570 0.815493
v 0.137950 -0.707107 0.693520
v 0.108386 -0.831470 0.544895
v 0.074658 -0.923880 0.375330
v 0.038060 -0.980785 0.191342
v -0.000000 0.980785 0.195090
v -0.000000 0.923880 0.382683
v -0.000000 0.831470 0.555570
v -0.000000 0.707107 0.707107
v -0.000000 0.555570 0.831469
v 0.000000 0.382683 0.923879
v -0.000000 0.195090 0.980785
v -0.000000 0.000000 0.999999
v -0.000000 -0.195090 0.980785
v 0.000000 -0.382683 0.923879
v -0.000000 -0.555570 0.831469
v -0.000000 -0.707107 0.707107
v -0.000000 -0.831470 0.555570
v -0.000000 -0.923880 0.382683
v -0.000000 -0.980785 0.195090
v -0.038060 0.980785 0.191342
v -0.074658 0.923880 0.375330
v -0.108386 0.831470 0.544895
v -0.137950 0.707107 0.693520
v -0.162212 0.555570 0.815493
v -0.180240 0.382683 0.906127
v -0.191342 0.195090 0.961939
v -0.195091 0.000000 0.980785
v -0.191342 -0.195090 0.961939
v -0.180240 -0.382683 0.906127
v -0.162212 -0.555570 0.815493
v -0.137950 -0.707107 0.693520
v -0.108386 -0.831470 0.544895
v -0.074658 -0.923880 0.375330
v -0.038060 -0.980785 0.191342
v -0.074658 0.980785 0.180240
v -0.146447 0.923880 0.353553
v -0.212608 0.831470 0.513280
v -0.270598 0.707107 0.653281
v -0.318190 0.555570 0.768177
v -0.353553 0.382683 0.853553
v -0.375330 0.195090 0.906127
v -0.382683 0.000000 0.923879
v -0.375330 -0.195090 0.906127
v -0.353553 -0.382683 0.853553
v -0.318190 -0.555570 0.768177
v -0.270598 -0.707107 0.653281
v -0.212608 -0.831470 0.513280
v -0.146447 -0.923880 0.353553
v -0.074658 -0.980785 0.180240
v -0.108386 0.980785 0.162212
v -0.212608 0.923880 0.318190
v -0.308658 0.831470 0.461939
v -0.392847 0.707107 0.587938
v -0.461940 0.555570 0.691341
v -0.513280 0.382683 0.768178
v -0.544895 0.195090 0.815493
v -0.555570 0.000000 0.831469
v -0.544895 -0.195090 0.815493
v -0.513280 -0.382683 0.768178
v -0.461940 -0.555570 0.691341
v -0.392847 -0.707107 0.587938
v -0.308658 -0.831470 0.461939
v -0.212608 -0.923880 0.318190
v -0.108386 -0.980785 0.162212
v -0.137950 0.980785 0.137950
v -0.270598 0.923880 0.270598
v -0.392847 0.831470 0.392847
v -0.500000 0.707107 0.500000
v -0.587938 0.555570 0.587937
v -0.653281 0.382683 0.653281
v -0.693520 0.195090 0.693520
v -0.707106 0.000000 0.707106
v -0.693520 -0.195090 0.693520
v -0.653281 -0.382683 0.653281
v -0.587938 -0.555570 0.587937
v -0.500000 -0.707107 0.500000
v -0.392847 -0.831470 0.392847
v -0.270598 -0.923880 0.270598
v -0.137950 -0.980785 0.137950
v -0.162212 0.980785 0.108386
v -0.318190 0.923880 0.212607
v -0.461940 0.831470 0.308658
v -0.587938 0.707107 0.392847
v -0.691341 0.555570 0.461939
v -0.768177 0.382683 0.513280
v -0.815493 0.195090 0.544895
v -0.831469 0.000000 0.555569
v -0.815493 -0.195090 0.544895
v -0.768177 -0.382683 0.513280
v -0.691341 -0.555570 0.461939
v -0.587938 -0.707107 0.392847
v -0.461940 -0.831470 0.308658
v -0.318190 -0.923880 0.212607
v -0.162212 -0.980785 0.108386
v -0.180240 0.980785 0.074658
v -0.353553 0.923880 0.146447
v -0.513280 0.831470 0.212607
v -0.653281 0.707107 0.270598
v -0.768177 0.555570 0.318189
v -0.853553 0.382683 0.353553
v -0.906127 0.195090 0.375330
v -0.923879 0.000000 0.382683
v -0.906127 -0.195090 0.375330
v -0.853553 -0.382683 0.353553
v -0.768177 -0.555570 0.318189
v -0.653281 -0.707107 0.270598
v -0.513280 -0.831470 0.212607
v -0.353553 -0.923880 0.146447
v -0.180240 -0.980785 0.074658
v -0.191342 0.980785 0.038060
v -0.375330 0.923880 0.074658
v -0.544895 0.831470 0.108386
v -0.693520 0.707107 0.137950
v -0.815493 0.555570 0.162211
v -0.906127 0.382683 0.180240
v -0.961939 0.195090 0.191341
v -0.980784 0.000000 0.195090
v -0.961939 -0.195090 0.191341
v -0.906127 -0.382683 0.180240
v -0.815493 -0.555570 0.162211
v -0.693520 -0.707107 0.137950
v -0.544895 -0.831470 0.108386
v -0.375330 -0.923880 0.074658
v -0.191342 -0.980785 0.038060
v -0.195090 0.980785 -0.000000
v -0.382683 0.923880 -0.000000
v -0.555570 0.831470 -0.000000
v -0.707107 0.707107 -0.000000
v -0.831469 0.555570 -0.000000
v -0.923879 0.382683 -0.000000
v -0.980785 0.195090 -0.000000
v -0.999999 0.000000 -0.000000
v -0.980785 -0.195090 -0.000000
v -0.923879 -0.382683 -0.000000
v -0.831469 -0.555570 -0.000000
v -0.707107 -0.707107 -0.000000
v -0.555570 -0.831470 -0.000000
v -0.382683 -0.923880 -0.000000
v -0.195090 -0.980785 -0.000000
v -0.191342 0.980785 -0.038060
v -0.375330 0.923880 -0.074658
v -0.544895 0.831470 -0.108386
v -0.693520 0.707107 -0.137950
v -0.815493 0.555570 -0.162212
v -0.906127 0.382683 -0.180240
v -0.961939 0.195090 -0.191342
v -0.980784 0.000000 -0.195091
v -0.961939 -0.195090 -0.191342
v -0.906127 -0.382683 -0.180240
v -0.815493 -0.555570 -0.162212
v -0.693520 -0.707107 -0.137950
v -0.544895 -0.831470 -0.108386
v -0.375330 -0.923880 -0.074658
v -0.191342 -0.980785 -0.038060
v -0.180240 0.980785 -0.074658
v -0.353553 0.923880 -0.146447
v -0.513279 0.831470 -0.212607
v -0.653281 0.707107 -0.270598
v -0.768177 0.555570 -0.318190
v -0.853553 0.382683 -0.353553
v -0.906127 0.195090 -0.375330
v -0.923878 0.000000 -0.382683
v -0.906127 -0.195090 -0.375330
v -0.853553 -0.382683 -0.353553
v -0.768177 -0.555570 -0.318190
v -0.653281 -0.707107 -0.270598
v -0.513279 -0.831470 -0.212607
v -0.353553 -0.923880 -0.146447
v -0.180240 -0.980785 -0.074658
v -0.162212 0.980785 -0.108386
v -0.318189 0.923880 -0.212607
v -0.461939 0.831470 -0.308658
v -0.587938 0.707107 -0.392847
v -0.691341 0.555570 -0.461940
v -0.768177 0.382683 -0.513280
v -0.815493 0.195090 -0.544895
v -0.831468 0.000000 -0.555570
v -0.815493 -0.195090 -0.544895
v -0.768177 -0.382683 -0.513280
v -0.691341 -0.555570 -0.461940
v -0.587938 -0.707107 -0.392847
v -0.461939 -0.831470 -0.308658
v -0.318189 -0.923880 -0.212607
v -0.162212 -0.980785 -0.108386
v -0.137950 0.980785 -0.137950
v -0.270598 0.923880 -0.270598
v -0.392847 0.831470 -0.392847
v -0.500000 0.707107 -0.500000
v -0.587937 0.555570 -0.587938
v -0.653281 0.382683 -0.653281
v -0.693519 0.195090 -0.693520
v -0.707106 0.000000 -0.707106
v -0.693519 -0.195090 -0.693520
v -0.653281 -0.382683 -0.653281
v -0.587937 -0.555570 -0.587938
v -0.500000 -0.707107 -0.500000
v -0.392847 -0.831470 -0.392847
v -0.270598 -0.923880 -0.270598
v -0.137950 -0.980785 -0.137950
v -0.108386 0.980785 -0.162212
v -0.212607 0.923880 -0.318190
v -0.308658 0.831470 -0.461939
v -0.392847 0.707107 -0.587938
v -0.461939 0.555570 -0.691341
v -0.513280 0.382683 -0.768177
v -0.544895 0.195090 -0.815493
v -0.555569 0.000000 -0.831469
v -0.544895 -0.195090 -0.815493
v -0.513280 -0.382683 -0.768177
v -0.461939 -0.555570 -0.691341
v -0.392847 -0.707107 -0.587938
v -0.308658 -0.831470 -0.461939
v -0.212607 -0.923880 -0.318190
v -0.108386 -0.980785 -0.162212
v -0.074658 0.980785 -0.180240
v -0.146446 0.923880 -0.353553
v -0.212607 0.831470 -0.513279
v -0.270598 0.707107 -0.653281
v -0.318189 0.555570 -0.768177
v -0.353553 0.382683 -0.853553
v -0.375330 0.195090 -0.906127
v -0.382683 0.000000 -0.923879
v -0.375330 -0.195090 -0.906127
v -0.353553 -0.382683 -0.853553
v -0.318189 -0.555570 -0.768177
v -0.270598 -0.707107 -0.653281
v -0.212607 -0.831470 -0.513279
v -0.146446 -0.923880 -0.353553
v -0.074658 -0.980785 -0.180240
v -0.038060 0.980785 -0.191342
v -0.074658 0.923880 -0.375330
v -0.108386 0.831470 -0.544895
v -0.137950 0.707107 -0.693520
v -0.162211 0.555570 -0.815493
v -0.180240 0.382683 -0.906127
v -0.191341 0.195090 -0.961939
v -0.195090 0.000000 -0.980784
v -0.191341 -0.195090 -0.961939
v -0.180240 -0.382683 -0.906127
v -0.162211 -0.555570 -0.815493
v -0.137950 -0.707107 -0.693520
v -0.108386 -0.831470 -0.544895
v -0.074658 -0.923880 -0.375330
v -0.038060 -0.980785 -0.191342
v 0.000000 0.980785 -0.195090
v 0.000000 0.923880 -0.382683
v 0.000000 0.707107 -0.707107
v 0.000000 0.382683 -0.923879
v 0.000000 -0.382683 -0.923879
v 0.000000 -0.707107 -0.707107
v 0.000000 -0.831470 -0.555570
v 0.000000 -0.923880 -0.382683
v 0.000000 -0.980785 -0.195090
vn 0.0624 -0.7715 -0.6332
vn 0.0865 0.4696 -0.8786
vn 0.0464 -0.8810 -0.4709
vn 0.0938 0.2890 -0.9527
vn 0.0286 -0.9565 -0.2902
vn 0.0975 0.0975 -0.9904
vn 0.0097 0.9951 -0.0980
vn 0.0097 -0.9951 -0.0980
vn 0.0975 -0.0975 -0.9904
vn 0.0286 0.9565 -0.2902
vn 0.0938 -0.2890 -0.9527
vn 0.0464 0.8810 -0.4709
vn 0.0865 -0.4696 -0.8786
vn 0.0624 0.7715 -0.6332
vn 0.0759 -0.6326 -0.7708
vn 0.0759 0.6326 -0.7708
vn 0.2248 -0.6326 -0.7412
vn 0.2248 0.6326 -0.7412
vn 0.1847 -0.7715 -0.6088
vn 0.2563 0.4696 -0.8448
vn 0.1374 -0.8810 -0.4528
vn 0.2779 0.2890 -0.9161
vn 0.0846 -0.9565 -0.2790
vn 0.2889 0.0976 -0.9524
vn 0.0286 0.9951 -0.0942
vn 0.0286 -0.9951 -0.0942
vn 0.2889 -0.0976 -0.9524
vn 0.0846 0.9565 -0.2790
vn 0.2779 -0.2890 -0.9161
vn 0.1374 0.8810 -0.4528
vn 0.2563 -0.4696 -0.8448
vn 0.1847 0.7715 -0.6088
vn 0.0464 0.9951 -0.0869
vn 0.0464 -0.9951 -0.0869
vn 0.4691 -0.0975 -0.8777
vn 0.1374 0.9565 -0.2571
vn 0.4513 -0.2890 -0.8443
vn 0.2230 0.8810 -0.4173
vn 0.4162 -0.4696 -0.7786
vn 0.2999 0.7715 -0.5611
vn 0.3651 -0.6326 -0.6831
vn 0.3651 0.6326 -0.6831
vn 0.2999 -0.7715 -0.5611
vn 0.4162 0.4696 -0.7786
vn 0.2230 -0.8810 -0.4173
vn 0.4513 0.2890 -0.8443
vn 0.1374 -0.9565 -0.2571
vn 0.4691 0.0975 -0.8777
vn 0.4913 0.6326 -0.5987
vn 0.4036 -0.7715 -0.4918
vn 0.5601 0.4696 -0.6825
vn 0.3002 -0.8810 -0.3658
vn 0.6073 0.2890 -0.7400
vn 0.1850 -0.9565 -0.2254
vn 0.6314 0.0975 -0.7693
vn 0.0625 0.9951 -0.0761
vn 0.0625 -0.9951 -0.0761
vn 0.6314 -0.0975 -0.7693
vn 0.1850 0.9565 -0.2254
vn 0.6073 -0.2890 -0.7400
vn 0.3002 0.8810 -0.3658
vn 0.5601 -0.4696 -0.6825
vn 0.4036 0.7715 -0.4918
vn 0.4913 -0.6326 -0.5987
vn 0.7693 -0.0975 -0.6314
vn 0.2254 0.9565 -0.1850
vn 0.7400 -0.2890 -0.6073
vn 0.3658 0.8810 -0.3002
vn 0.6825 -0.4696 -0.5601
vn 0.4918 0.7715 -0.4036
vn 0.5987 -0.6326 -0.4913
vn 0.5987 0.6326 -0.4913
vn 0.4918 -0.7715 -0.4036
vn 0.6825 0.4696 -0.5601
vn 0.3658 -0.8810 -0.3002
vn 0.7400 0.2890 -0.6073
vn 0.2254 -0.9565 -0.1850
vn 0.7693 0.0975 -0.6314
vn 0.0761 0.9951 -0.0625
vn 0.0761 -0.9951 -0.0625
vn 0.5611 -0.7715 -0.2999
vn 0.7786 0.4696 -0.4162
vn 0.4173 -0.8810 -0.2230
vn 0.8443 0.2890 -0.4513
vn 0.2571 -0.9565 -0.1374
vn 0.8777 0.0975 -0.4691
vn 0.0869 0.9951 -0.0464
vn 0.0869 -0.9951 -0.0464
vn 0.8777 -0.0975 -0.4691
vn 0.2571 0.9565 -0.1374
vn 0.8443 -0.2890 -0.4513
vn 0.4173 0.8810 -0.2230
vn 0.7786 -0.4696 -0.4162
vn 0.5611 0.7715 -0.2999
vn 0.6831 -0.6326 -0.3651
vn 0.6831 0.6326 -0.3651
vn 0.9161 -0.2890 -0.2779
vn 0.4528 0.8810 -0.1374
vn 0.8448 -0.4696 -0.2563
vn 0.6088 0.7715 -0.1847
vn 0.7412 -0.6326 -0.2248
vn 0.7412 0.6326 -0.2248
vn 0.6088 -0.7715 -0.1847
vn 0.8448 0.4696 -0.2563
vn 0.4528 -0.8810 -0.1374
vn 0.9161 0.2890 -0.2779
vn 0.2790 -0.9565 -0.0846
vn 0.9524 0.0975 -0.2889
vn 0.0942 0.9951 -0.0286
vn 0.0942 -0.9951 -0.0286
vn 0.9524 -0.0975 -0.2889
vn 0.2790 0.9565 -0.0846
vn 0.4709 -0.8810 -0.0464
vn 0.9527 0.2890 -0.0938
vn 0.2902 -0.9565 -0.0286
vn 0.9904 0.0975 -0.0975
vn 0.0980 0.9951 -0.0097
vn 0.0980 -0.9951 -0.0097
vn 0.9904 -0.0975 -0.0975
vn 0.2902 0.9565 -0.0286
vn 0.9527 -0.2890 -0.0938
vn 0.4709 0.8810 -0.0464
vn 0.8786 -0.4696 -0.0865
vn 0.6332 0.7715 -0.0624
vn 0.7708 -0.6326 -0.0759
vn 0.7708 0.6326 -0.0759
vn 0.6332 -0.7715 -0.0624
vn 0.8786 0.4696 -0.0865
vn 0.4709 0.8810 0.0464
vn 0.8786 -0.4696 0.0865
vn 0.6332 0.7715 0.0624
vn 0.7708 -0.6326 0.0759
vn 0.7708 0.6326 0.0759
vn 0.6332 -0.7715 0.0624
vn 0.8786 0.4696 0.0865
vn 0.4709 -0.8810 0.0464
vn 0.9527 0.2890 0.0938
vn 0.2902 -0.9565 0.0286
vn 0.9904 0.0975 0.0976
vn 0.0980 0.9951 0.0097
vn 0.0980 -0.9951 0.0097
vn 0.9904 -0.0975 0.0976
vn 0.2902 0.9565 0.0286
vn 0.9527 -0.2890 0.0938
vn 0.9161 0.2890 0.2779
vn 0.2790 -0.9565 0.0846
vn 0.9524 0.0975 0.2889
vn 0.0942 0.9951 0.0286
vn 0.0942 -0.9951 0.0286
vn 0.9524 -0.0975 0.2889
vn 0.2790 0.9565 0.0846
vn 0.9161 -0.2890 0.2779
vn 0.4528 0.8810 0.1374
vn 0.8448 -0.4696 0.2563
vn 0.6088 0.7715 0.1847
vn 0.7412 -0.6326 0.2248
vn 0.7412 0.6326 0.2248
vn 0.6088 -0.7715 0.1847
vn 0.8448 0.4696 0.2563
vn 0.4528 -0.8810 0.1374
vn 0.7786 -0.4696 0.4162
vn 0.5611 0.7715 0.2999
vn 0.6831 -0.6326 0.3651
vn 0.6831 0.6326 0.3651
vn 0.5611 -0.7715 0.2999
vn 0.7786 0.4696 0.4162
vn 0.4173 -0.8810 0.2230
vn 0.8443 0.2890 0.4513
vn 0.2571 -0.9565 0.1374
vn 0.8777 0.0975 0.4691
vn 0.0869 0.9951 0.0464
vn 0.0869 -0.9951 0.0464
vn 0.8777 -0.0975 0.4691
vn 0.2571 0.9565 0.1374
vn 0.8443 -0.2890 0.4513
vn 0.4173 0.8810 0.2230
vn 0.2254 -0.9565 0.1850
vn 0.7693 0.0975 0.6314
vn 0.0761 0.9951 0.0625
vn 0.0761 -0.9951 0.0625
vn 0.7693 -0.0975 0.6314
vn 0.2254 0.9565 0.1850
vn 0.7400 -0.2890 0.6073
vn 0.3658 0.8810 0.3002
vn 0.6825 -0.4696 0.5601
vn 0.4918 0.7715 0.4036
vn 0.5987 -0.6326 0.4913
vn 0.5987 0.6326 0.4913
vn 0.4918 -0.7715 0.4036
vn 0.6825 0.4696 0.5601
vn 0.3658 -0.8810 0.3002
vn 0.7400 0.2890 0.6073
vn 0.4036 0.7715 0.4918
vn 0.4913 -0.6326 0.5987
vn 0.4913 0.6326 0.5987
vn 0.4036 -0.7715 0.4918
vn 0.5601 0.4696 0.6825
vn 0.3002 -0.8810 0.3658
vn 0.6073 0.2890 0.7400
vn 0.1850 -0.9565 0.2254
vn 0.6314 0.0975 0.7693
vn 0.0625 0.9951 0.0761
vn 0.0625 -0.9951 0.0761
vn 0.6314 -0.0975 0.7693
vn 0.1850 0.9565 0.2254
vn 0.6073 -0.2890 0.7400
vn 0.3002 0.8810 0.3658
vn 0.5601 -0.4696 0.6825
vn 0.4691 0.0975 0.8777
vn 0.0464 0.9951 0.0869
vn 0.0464 -0.9951 0.0869
vn 0.4691 -0.0975 0.8777
vn 0.1374 0.9565 0.2571
vn 0.4513 -0.2890 0.8443
vn 0.2230 0.8810 0.4173
vn 0.4162 -0.4696 0.7786
vn 0.2999 0.7715 0.5611
vn 0.3651 -0.6326 0.6831
vn 0.3651 0.6326 0.6831
vn 0.2999 -0.7715 0.5611
vn 0.4162 0.4696 0.7786
vn 0.2230 -0.8810 0.4173
vn 0.4513 0.2890 0.8443
vn 0.1374 -0.9565 0.2571
vn 0.2248 -0.6326 0.7412
vn 0.2248 0.6326 0.7412
vn 0.1847 -0.7715 0.6088
vn 0.2563 0.4696 0.8448
vn 0.1374 -0.8810 0.4528
vn 0.2779 0.2890 0.9161
vn 0.0846 -0.9565 0.2790
vn 0.2889 0.0975 0.9524
vn 0.0286 0.9951 0.0942
vn 0.0286 -0.9951 0.0942
vn 0.2889 -0.0975 0.9524
vn 0.0846 0.9565 0.2790
vn 0.2779 -0.2890 0.9161
vn 0.1374 0.8810 0.4528
vn 0.2563 -0.4696 0.8448
vn 0.1847 0.7715 0.6088
vn 0.0097 -0.9951 0.0980
vn 0.0975 -0.0975 0.9904
vn 0.0286 0.9565 0.2902
vn 0.0938 -0.2890 0.9527
vn 0.0464 0.8810 0.4709
vn 0.0865 -0.4696 0.8786
vn 0.0624 0.7715 0.6332
vn 0.0759 -0.6326 0.7708
vn 0.0759 0.6326 0.7708
vn 0.0624 -0.7715 0.6332
vn 0.0865 0.4696 0.8786
vn 0.0464 -0.8810 0.4709
vn 0.0938 0.2890 0.9527
vn 0.0286 -0.9565 0.2902
vn 0.0975 0.0975 0.9904
vn 0.0097 0.9951 0.0980
vn -0.0624 -0.7715 0.6332
vn -0.0865 0.4696 0.8786
vn -0.0464 -0.8810 0.4709
vn -0.0938 0.2890 0.9527
vn -0.0286 -0.9565 0.2902
vn -0.0976 0.0975 0.9904
vn -0.0097 0.9951 0.0980
vn -0.0097 -0.9951 0.0980
vn -0.0976 -0.0975 0.9904
vn -0.0286 0.9565 0.2902
vn -0.0938 -0.2890 0.9527
vn -0.0464 0.8810 0.4709
vn -0.0865 -0.4696 0.8786
vn -0.0624 0.7715 0.6332
vn -0.0759 -0.6326 0.7708
vn -0.0759 0.6326 0.7708
vn -0.0846 0.9565 0.2790
vn -0.2779 -0.2890 0.9161
vn -0.1374 0.8810 0.4528
vn -0.2563 -0.4696 0.8448
vn -0.1847 0.7715 0.6088
vn -0.2248 -0.6326 0.7412
vn -0.2248 0.6326 0.7412
vn -0.1847 -0.7715 0.6088
vn -0.2563 0.4696 0.8448
vn -0.1374 -0.8810 0.4528
vn -0.2779 0.2890 0.9161
vn -0.0846 -0.9565 0.2790
vn -0.2889 0.0975 0.9524
vn -0.0286 0.9951 0.0942
vn -0.0286 -0.9951 0.0942
vn -0.2889 -0.0975 0.9524
vn -0.4162 0.4696 0.7786
vn -0.2230 -0.8810 0.4173
vn -0.4513 0.2890 0.8443
vn -0.1374 -0.9565 0.2571
vn -0.4691 0.0975 0.8777
vn -0.0464 0.9951 0.0869
vn -0.0464 -0.9951 0.0869
vn -0.4691 -0.0975 0.8777
vn -0.1374 0.9565 0.2571
vn -0.4513 -0.2890 0.8443
vn -0.2230 0.8810 0.4173
vn -0.4162 -0.4696 0.7786
vn -0.2999 0.7715 0.5611
vn -0.3651 -0.6326 0.6831
vn -0.3651 0.6326 0.6831
vn -0.2999 -0.7715 0.5611
vn -0.6073 -0.2890 0.7400
vn -0.3002 0.8810 0.3658
vn -0.5601 -0.4696 0.6825
vn -0.4036 0.7715 0.4918
vn -0.4913 -0.6326 0.5987
vn -0.4913 0.6326 0.5987
vn -0.4036 -0.7715 0.4918
vn -0.5601 0.4696 0.6825
vn -0.3002 -0.8810 0.3658
vn -0.6073 0.2890 0.7400
vn -0.1850 -0.9565 0.2254
vn -0.6314 0.0975 0.7693
vn -0.0625 0.9951 0.0761
vn -0.0625 -0.9951 0.0761
vn -0.6314 -0.0975 0.7693
vn -0.1850 0.9565 0.2254
vn -0.3658 -0.8810 0.3002
vn -0.7400 0.2890 0.6073
vn -0.2254 -0.9565 0.1850
vn -0.7693 0.0975 0.6314
vn -0.0761 0.9951 0.0625
vn -0.0761 -0.9951 0.0625
vn -0.7693 -0.0975 0.6314
vn -0.2254 0.9565 0.1850
vn -0.7400 -0.2890 0.6073
vn -0.3658 0.8810 0.3002
vn -0.6825 -0.4696 0.5601
vn -0.4918 0.7715 0.4036
vn -0.5987 -0.6326 0.4913
vn -0.5987 0.6326 0.4913
vn -0.4918 -0.7715 0.4036
vn -0.6825 0.4696 0.5601
vn -0.4173 0.8810 0.2230
vn -0.7786 -0.4696 0.4162
vn -0.5611 0.7715 0.2999
vn -0.6831 -0.6326 0.3651
vn -0.6831 0.6326 0.3651
vn -0.5611 -0.7715 0.2999
vn -0.7786 0.4696 0.4162
vn -0.4173 -0.8810 0.2230
vn -0.8443 0.2890 0.4513
vn -0.2571 -0.9565 0.1374
vn -0.8777 0.0975 0.4691
vn -0.0869 0.9951 0.0464
vn -0.0869 -0.9951 0.0464
vn -0.8777 -0.0975 0.4691
vn -0.2571 0.9565 0.1374
vn -0.8443 -0.2890 0.4513
vn -0.9161 0.2890 0.2779
vn -0.2790 -0.9565 0.0846
vn -0.9524 0.0975 0.2889
vn -0.0942 0.9951 0.0286
vn -0.0942 -0.9951 0.0286
vn -0.9524 -0.0975 0.2889
vn -0.2790 0.9565 0.0846
vn -0.9161 -0.2890 0.2779
vn -0.4528 0.8810 0.1374
vn -0.8448 -0.4696 0.2563
vn -0.6088 0.7715 0.1847
vn -0.7412 -0.6326 0.2248
vn -0.7412 0.6326 0.2248
vn -0.6088 -0.7715 0.1847
vn -0.8448 0.4696 0.2563
vn -0.4528 -0.8810 0.1374
vn -0.8786 -0.4696 0.0865
vn -0.6332 0.7715 0.0624
vn -0.7708 -0.6326 0.0759
vn -0.7708 0.6326 0.0759
vn -0.6332 -0.7715 0.0624
vn -0.8786 0.4696 0.0865
vn -0.4709 -0.8810 0.0464
vn -0.9527 0.2890 0.0938
vn -0.2902 -0.9565 0.0286
vn -0.9904 0.0975 0.0975
vn -0.0980 0.9951 0.0097
vn -0.0980 -0.9951 0.0097
vn -0.9904 -0.0975 0.0975
vn -0.2902 0.9565 0.0286
vn -0.9527 -0.2890 0.0938
vn -0.4709 0.8810 0.0464
vn -0.2902 -0.9565 -0.0286
vn -0.9904 0.0975 -0.0976
vn -0.0980 0.9951 -0.0097
vn -0.0980 -0.9951 -0.0097
vn -0.9904 -0.0975 -0.0976
vn -0.2902 0.9565 -0.0286
vn -0.9527 -0.2890 -0.0938
vn -0.4709 0.8810 -0.0464
vn -0.8786 -0.4696 -0.0865
vn -0.6332 0.7715 -0.0624
vn -0.7708 -0.6326 -0.0759
vn -0.7708 0.6326 -0.0759
vn -0.6332 -0.7715 -0.0624
vn -0.8786 0.4696 -0.0865
vn -0.4709 -0.8810 -0.0464
vn -0.9527 0.2890 -0.0938
vn -0.7412 -0.6326 -0.2248
vn -0.7412 0.6326 -0.2248
vn -0.6088 -0.7715 -0.1847
vn -0.8448 0.4696 -0.2563
vn -0.4528 -0.8810 -0.1374
vn -0.9161 0.2890 -0.2779
vn -0.2790 -0.9565 -0.0846
vn -0.9524 0.0975 -0.2889
vn -0.0942 0.9951 -0.0286
vn -0.0942 -0.9951 -0.0286
vn -0.9524 -0.0975 -0.2889
vn -0.2790 0.9565 -0.0846
vn -0.9161 -0.2890 -0.2779
vn -0.4528 0.8810 -0.1374
vn -0.8448 -0.4696 -0.2563
vn -0.6088 0.7715 -0.1847
vn -0.0869 0.9951 -0.0464
vn -0.0869 -0.9951 -0.0464
vn -0.8777 -0.0975 -0.4691
vn -0.2571 0.9565 -0.1374
vn -0.8443 -0.2890 -0.4513
vn -0.4173 0.8810 -0.2231
vn -0.7786 -0.4696 -0.4162
vn -0.5611 0.7715 -0.2999
vn -0.6831 -0.6326 -0.3651
vn -0.6831 0.6326 -0.3651
vn -0.5611 -0.7715 -0.2999
vn -0.7786 0.4696 -0.4162
vn -0.4173 -0.8810 -0.2231
vn -0.8443 0.2890 -0.4513
vn -0.2571 -0.9565 -0.1374
vn -0.8777 0.0975 -0.4691
vn -0.5987 0.6326 -0.4913
vn -0.4918 -0.7715 -0.4036
vn -0.6825 0.4696 -0.5601
vn -0.3658 -0.8810 -0.3002
vn -0.7400 0.2890 -0.6073
vn -0.2254 -0.9565 -0.1850
vn -0.7693 0.0975 -0.6314
vn -0.0761 0.9951 -0.0625
vn -0.0761 -0.9951 -0.0625
vn -0.7693 -0.0975 -0.6314
vn -0.2254 0.9565 -0.1850
vn -0.7400 -0.2890 -0.6073
vn -0.3658 0.8810 -0.3002
vn -0.6825 -0.4696 -0.5601
vn -0.4918 0.7715 -0.4036
vn -0.5987 -0.6326 -0.4913
vn -0.6314 -0.0975 -0.7693
vn -0.1850 0.9565 -0.2254
vn -0.6073 -0.2890 -0.7400
vn -0.3002 0.8810 -0.3658
vn -0.5601 -0.4696 -0.6825
vn -0.4036 0.7715 -0.4918
vn -0.4913 -0.6326 -0.5987
vn -0.4913 0.6326 -0.5987
vn -0.4036 -0.7715 -0.4918
vn -0.5601 0.4696 -0.6825
vn -0.3002 -0.8810 -0.3658
vn -0.6073 0.2890 -0.7400
vn -0.1850 -0.9565 -0.2254
vn -0.6314 0.0975 -0.7693
vn -0.0625 0.9951 -0.0761
vn -0.0625 -0.9951 -0.0761
vn -0.2999 -0.7715 -0.5611
vn -0.4162 0.4696 -0.7786
vn -0.2230 -0.8810 -0.4173
vn -0.4513 0.2890 -0.8443
vn -0.1374 -0.9565 -0.2571
vn -0.4691 0.0975 -0.8777
vn -0.0464 0.9951 -0.0869
vn -0.0464 -0.9951 -0.0869
vn -0.4691 -0.0975 -0.8777
vn -0.1374 0.9565 -0.2571
vn -0.4513 -0.2890 -0.8443
vn -0.2230 0.8810 -0.4173
vn -0.4162 -0.4696 -0.7786
vn -0.2999 0.7715 -0.5611
vn -0.3651 -0.6326 -0.6831
vn -0.3651 0.6326 -0.6831
vn -0.0846 0.9565 -0.2790
vn -0.2779 -0.2890 -0.9161
vn -0.1374 0.8810 -0.4528
vn -0.2563 -0.4696 -0.8448
vn -0.1847 0.7715 -0.6088
vn -0.2248 -0.6326 -0.7412
vn -0.2248 0.6326 -0.7412
vn -0.1847 -0.7715 -0.6088
vn -0.2563 0.4696 -0.8448
vn -0.1374 -0.8810 -0.4528
vn -0.2779 0.2890 -0.9161
vn -0.0846 -0.9565 -0.2790
vn -0.2889 0.0975 -0.9524
vn -0.0286 0.9951 -0.0942
vn -0.0286 -0.9951 -0.0942
vn -0.2889 -0.0975 -0.9524
vn -0.0865 0.4696 -0.8786
vn -0.0464 -0.8810 -0.4709
vn -0.0938 0.2890 -0.9527
vn -0.0286 -0.9565 -0.2902
vn -0.0976 0.0975 -0.9904
vn -0.0097 0.9951 -0.0980
vn -0.0097 -0.9951 -0.0980
vn -0.0976 -0.0975 -0.9904
vn -0.0286 0.9565 -0.2902
vn -0.0938 -0.2890 -0.9527
vn -0.0464 0.8810 -0.4709
vn -0.0865 -0.4696 -0.8786
vn -0.0624 0.7715 -0.6332
vn -0.0759 -0.6326 -0.7708
vn -0.0759 0.6326 -0.7708
vn -0.0624 -0.7715 -0.6332
vt 0.750000 0.187500
vt 0.750000 0.250000
vt 0.718750 0.250000
vt 0.718750 0.187500
vt 0.750000 0.625000
vt 0.750000 0.687500
vt 0.718750 0.687500
vt 0.718750 0.625000
vt 0.750000 0.125000
vt 0.718750 0.125000
vt 0.750000 0.562500
vt 0.718750 0.562500
vt 0.750000 0.062500
vt 0.718750 0.062500
vt 0.750000 0.500000
vt 0.718750 0.500000
vt 0.750000 0.937500
vt 0.734375 1.000000
vt 0.718750 0.937500
vt 0.734375 0.000000
vt 0.750000 0.437500
vt 0.718750 0.437500
vt 0.750000 0.875000
vt 0.718750 0.875000
vt 0.750000 0.375000
vt 0.718750 0.375000
vt 0.750000 0.812500
vt 0.718750 0.812500
vt 0.750000 0.312500
vt 0.718750 0.312500
vt 0.750000 0.750000
vt 0.718750 0.750000
vt 0.687500 0.312500
vt 0.687500 0.250000
vt 0.687500 0.750000
vt 0.687500 0.687500
vt 0.687500 0.187500
vt 0.687500 0.625000
vt 0.687500 0.125000
vt 0.687500 0.562500
vt 0.687500 0.062500
vt 0.687500 0.500000
vt 0.703125 1.000000
vt 0.687500 0.937500
vt 0.703125 0.000000
vt 0.687500 0.437500
vt 0.687500 0.875000
vt 0.687500 0.375000
vt 0.687500 0.812500
vt 0.671875 1.000000
vt 0.656250 0.937500
vt 0.671875 0.000000
vt 0.656250 0.062500
vt 0.656250 0.500000
vt 0.656250 0.437500
vt 0.656250 0.875000
vt 0.656250 0.375000
vt 0.656250 0.812500
vt 0.656250 0.312500
vt 0.656250 0.750000
vt 0.656250 0.250000
vt 0.656250 0.687500
vt 0.656250 0.187500
vt 0.656250 0.625000
vt 0.656250 0.125000
vt 0.656250 0.562500
vt 0.625000 0.750000
vt 0.625000 0.687500
vt 0.625000 0.250000
vt 0.625000 0.187500
vt 0.625000 0.625000
vt 0.625000 0.125000
vt 0.625000 0.562500
vt 0.625000 0.062500
vt 0.625000 0.500000
vt 0.640625 1.000000
vt 0.625000 0.937500
vt 0.640625 0.000000
vt 0.625000 0.437500
vt 0.625000 0.875000
vt 0.625000 0.375000
vt 0.625000 0.812500
vt 0.625000 0.312500
vt 0.593750 0.500000
vt 0.593750 0.437500
vt 0.593750 0.937500
vt 0.593750 0.875000
vt 0.593750 0.375000
vt 0.593750 0.812500
vt 0.593750 0.312500
vt 0.593750 0.750000
vt 0.593750 0.250000
vt 0.593750 0.687500
vt 0.593750 0.187500
vt 0.593750 0.625000
vt 0.593750 0.125000
vt 0.593750 0.562500
vt 0.593750 0.062500
vt 0.609375 1.000000
vt 0.609375 0.000000
vt 0.562500 0.250000
vt 0.562500 0.187500
vt 0.562500 0.687500
vt 0.562500 0.625000
vt 0.562500 0.125000
vt 0.562500 0.562500
vt 0.562500 0.062500
vt 0.562500 0.500000
vt 0.578125 1.000000
vt 0.562500 0.937500
vt 0.578125 0.000000
vt 0.562500 0.437500
vt 0.562500 0.875000
vt 0.562500 0.375000
vt 0.562500 0.812500
vt 0.562500 0.312500
vt 0.562500 0.750000
vt 0.531250 0.437500
vt 0.531250 0.375000
vt 0.531250 0.875000
vt 0.531250 0.812500
vt 0.531250 0.312500
vt 0.531250 0.750000
vt 0.531250 0.250000
vt 0.531250 0.687500
vt 0.531250 0.187500
vt 0.531250 0.625000
vt 0.531250 0.125000
vt 0.531250 0.562500
vt 0.531250 0.062500
vt 0.531250 0.500000
vt 0.546875 1.000000
vt 0.531250 0.937500
vt 0.546875 0.000000
vt 0.500000 0.187500
vt 0.500000 0.125000
vt 0.500000 0.625000
vt 0.500000 0.562500
vt 0.500000 0.062500
vt 0.500000 0.500000
vt 0.515625 1.000000
vt 0.500000 0.937500
vt 0.515625 0.000000
vt 0.500000 0.437500
vt 0.500000 0.875000
vt 0.500000 0.375000
vt 0.500000 0.812500
vt 0.500000 0.312500
vt 0.500000 0.750000
vt 0.500000 0.250000
vt 0.500000 0.687500
vt 0.468750 0.875000
vt 0.468750 0.812500
vt 0.468750 0.375000
vt 0.468750 0.312500
vt 0.468750 0.750000
vt 0.468750 0.250000
vt 0.468750 0.687500
vt 0.468750 0.187500
vt 0.468750 0.625000
vt 0.468750 0.125000
vt 0.468750 0.562500
vt 0.468750 0.062500
vt 0.468750 0.500000
vt 0.484375 1.000000
vt 0.468750 0.937500
vt 0.484375 0.000000
vt 0.468750 0.437500
vt 0.437500 0.625000
vt 0.437500 0.562500
vt 0.437500 0.125000
vt 0.437500 0.062500
vt 0.437500 0.500000
vt 0.453125 1.000000
vt 0.437500 0.937500
vt 0.453125 0.000000
vt 0.437500 0.437500
vt 0.437500 0.875000
vt 0.437500 0.375000
vt 0.437500 0.812500
vt 0.437500 0.312500
vt 0.437500 0.750000
vt 0.437500 0.250000
vt 0.437500 0.687500
vt 0.437500 0.187500
vt 0.406250 0.375000
vt 0.406250 0.312500
vt 0.406250 0.812500
vt 0.406250 0.750000
vt 0.406250 0.250000
vt 0.406250 0.687500
vt 0.406250 0.187500
vt 0.406250 0.625000
vt 0.406250 0.125000
vt 0.406250 0.562500
vt 0.406250 0.062500
vt 0.406250 0.500000
vt 0.421875 1.000000
vt 0.406250 0.937500
vt 0.421875 0.000000
vt 0.406250 0.437500
vt 0.406250 0.875000
vt 0.375000 0.125000
vt 0.375000 0.062500
vt 0.375000 0.562500
vt 0.375000 0.500000
vt 0.390625 1.000000
vt 0.375000 0.937500
vt 0.390625 0.000000
vt 0.375000 0.437500
vt 0.375000 0.875000
vt 0.375000 0.375000
vt 0.375000 0.812500
vt 0.375000 0.312500
vt 0.375000 0.750000
vt 0.375000 0.250000
vt 0.375000 0.687500
vt 0.375000 0.187500
vt 0.375000 0.625000
vt 0.343750 0.812500
vt 0.343750 0.750000
vt 0.343750 0.312500
vt 0.343750 0.250000
vt 0.343750 0.687500
vt 0.343750 0.187500
vt 0.343750 0.625000
vt 0.343750 0.125000
vt 0.343750 0.562500
vt 0.343750 0.062500
vt 0.343750 0.500000
vt 0.359375 1.000000
vt 0.343750 0.937500
vt 0.359375 0.000000
vt 0.343750 0.437500
vt 0.343750 0.875000
vt 0.343750 0.375000
vt 0.312500 0.562500
vt 0.312500 0.500000
vt 0.328125 1.000000
vt 0.312500 0.937500
vt 0.328125 0.000000
vt 0.312500 0.062500
vt 0.312500 0.437500
vt 0.312500 0.875000
vt 0.312500 0.375000
vt 0.312500 0.812500
vt 0.312500 0.312500
vt 0.312500 0.750000
vt 0.312500 0.250000
vt 0.312500 0.687500
vt 0.312500 0.187500
vt 0.312500 0.625000
vt 0.312500 0.125000
vt 0.281250 0.312500
vt 0.281250 0.250000
vt 0.281250 0.750000
vt 0.281250 0.687500
vt 0.281250 0.187500
vt 0.281250 0.625000
vt 0.281250 0.125000
vt 0.281250 0.562500
vt 0.281250 0.062500
vt 0.281250 0.500000
vt 0.296875 1.000000
vt 0.281250 0.937500
vt 0.296875 0.000000
vt 0.281250 0.437500
vt 0.281250 0.875000
vt 0.281250 0.375000
vt 0.281250 0.812500
vt 0.265625 0.000000
vt 0.250000 0.062500
vt 0.250000 0.500000
vt 0.250000 0.437500
vt 0.250000 0.937500
vt 0.250000 0.875000
vt 0.250000 0.375000
vt 0.250000 0.812500
vt 0.250000 0.312500
vt 0.250000 0.750000
vt 0.250000 0.250000
vt 0.250000 0.687500
vt 0.250000 0.187500
vt 0.250000 0.625000
vt 0.250000 0.125000
vt 0.250000 0.562500
vt 0.265625 1.000000
vt 0.218750 0.250000
vt 0.218750 0.187500
vt 0.218750 0.687500
vt 0.218750 0.625000
vt 0.218750 0.125000
vt 0.218750 0.562500
vt 0.218750 0.062500
vt 0.218750 0.500000
vt 0.234375 1.000000
vt 0.218750 0.937500
vt 0.234375 0.000000
vt 0.218750 0.437500
vt 0.218750 0.875000
vt 0.218750 0.375000
vt 0.218750 0.812500
vt 0.218750 0.312500
vt 0.218750 0.750000
vt 0.187500 0.937500
vt 0.187500 0.875000
vt 0.187500 0.437500
vt 0.187500 0.375000
vt 0.187500 0.812500
vt 0.187500 0.312500
vt 0.187500 0.750000
vt 0.187500 0.250000
vt 0.187500 0.687500
vt 0.187500 0.187500
vt 0.187500 0.625000
vt 0.187500 0.125000
vt 0.187500 0.562500
vt 0.187500 0.062500
vt 0.187500 0.500000
vt 0.203125 1.000000
vt 0.203125 0.000000
vt 0.156250 0.687500
vt 0.156250 0.625000
vt 0.156250 0.187500
vt 0.156250 0.125000
vt 0.156250 0.562500
vt 0.156250 0.062500
vt 0.156250 0.500000
vt 0.171875 1.000000
vt 0.156250 0.937500
vt 0.171875 0.000000
vt 0.156250 0.437500
vt 0.156250 0.875000
vt 0.156250 0.375000
vt 0.156250 0.812500
vt 0.156250 0.312500
vt 0.156250 0.750000
vt 0.156250 0.250000
vt 0.125000 0.437500
vt 0.125000 0.375000
vt 0.125000 0.875000
vt 0.125000 0.812500
vt 0.125000 0.312500
vt 0.125000 0.750000
vt 0.125000 0.250000
vt 0.125000 0.687500
vt 0.125000 0.187500
vt 0.125000 0.625000
vt 0.125000 0.125000
vt 0.125000 0.562500
vt 0.125000 0.062500
vt 0.125000 0.500000
vt 0.140625 1.000000
vt 0.125000 0.937500
vt 0.140625 0.000000
vt 0.093750 0.187500
vt 0.093750 0.125000
vt 0.093750 0.625000
vt 0.093750 0.562500
vt 0.093750 0.062500
vt 0.093750 0.500000
vt 0.109375 1.000000
vt 0.093750 0.937500
vt 0.109375 0.000000
vt 0.093750 0.437500
vt 0.093750 0.875000
vt 0.093750 0.375000
vt 0.093750 0.812500
vt 0.093750 0.312500
vt 0.093750 0.750000
vt 0.093750 0.250000
vt 0.093750 0.687500
vt 0.062500 0.875000
vt 0.062500 0.812500
vt 0.062500 0.375000
vt 0.062500 0.312500
vt 0.062500 0.750000
vt 0.062500 0.250000
vt 0.062500 0.687500
vt 0.062500 0.187500
vt 0.062500 0.625000
vt 0.062500 0.125000
vt 0.062500 0.562500
vt 0.062500 0.062500
vt 0.062500 0.500000
vt 0.078125 1.000000
vt 0.062500 0.937500
vt 0.078125 0.000000
vt 0.062500 0.437500
vt 0.031250 0.625000
vt 0.031250 0.562500
vt 0.031250 0.125000
vt 0.031250 0.062500
vt 0.031250 0.500000
vt 0.046875 1.000000
vt 0.031250 0.937500
vt 0.046875 0.000000
vt 0.031250 0.437500
vt 0.031250 0.875000
vt 0.031250 0.375000
vt 0.031250 0.812500
vt 0.031250 0.312500
vt 0.031250 0.750000
vt 0.031250 0.250000
vt 0.031250 0.687500
vt 0.031250 0.187500
vt 0.000000 0.375000
vt 0.000000 0.312500
vt 0.000000 0.812500
vt 0.000000 0.750000
vt 0.000000 0.250000
vt 0.000000 0.687500
vt 0.000000 0.187500
vt 0.000000 0.625000
vt 0.000000 0.125000
vt 0.000000 0.562500
vt 0.000000 0.062500
vt 0.000000 0.500000
vt 0.015625 1.000000
vt 0.000000 0.937500
vt 0.015625 0.000000
vt 0.000000 0.437500
vt 0.000000 0.875000
vt 1.000000 0.062500
vt 1.000000 0.125000
vt 0.968750 0.125000
vt 0.968750 0.062500
vt 1.000000 0.500000
vt 1.000000 0.562500
vt 0.968750 0.562500
vt 0.968750 0.500000
vt 1.000000 0.937500
vt 0.984375 1.000000
vt 0.968750 0.937500
vt 0.984375 0.000000
vt 1.000000 0.437500
vt 0.968750 0.437500
vt 1.000000 0.875000
vt 0.968750 0.875000
vt 1.000000 0.375000
vt 0.968750 0.375000
vt 1.000000 0.812500
vt 0.968750 0.812500
vt 1.000000 0.312500
vt 0.968750 0.312500
vt 1.000000 0.750000
vt 0.968750 0.750000
vt 1.000000 0.250000
vt 0.968750 0.250000
vt 1.000000 0.687500
vt 0.968750 0.687500
vt 1.000000 0.187500
vt 0.968750 0.187500
vt 1.000000 0.625000
vt 0.968750 0.625000
vt 0.937500 0.312500
vt 0.937500 0.250000
vt 0.937500 0.750000
vt 0.937500 0.687500
vt 0.937500 0.187500
vt 0.937500 0.625000
vt 0.937500 0.125000
vt 0.937500 0.562500
vt 0.937500 0.062500
vt 0.937500 0.500000
vt 0.953125 1.000000
vt 0.937500 0.937500
vt 0.953125 0.000000
vt 0.937500 0.437500
vt 0.937500 0.875000
vt 0.937500 0.375000
vt 0.937500 0.812500
vt 0.921875 1.000000
vt 0.906250 0.937500
vt 0.921875 0.000000
vt 0.906250 0.062500
vt 0.906250 0.500000
vt 0.906250 0.437500
vt 0.906250 0.875000
vt 0.906250 0.375000
vt 0.906250 0.812500
vt 0.906250 0.312500
vt 0.906250 0.750000
vt 0.906250 0.250000
vt 0.906250 0.687500
vt 0.906250 0.187500
vt 0.906250 0.625000
vt 0.906250 0.125000
vt 0.906250 0.562500
vt 0.875000 0.750000
vt 0.875000 0.687500
vt 0.875000 0.250000
vt 0.875000 0.187500
vt 0.875000 0.625000
vt 0.875000 0.125000
vt 0.875000 0.562500
vt 0.875000 0.062500
vt 0.875000 0.500000
vt 0.890625 1.000000
vt 0.875000 0.937500
vt 0.890625 0.000000
vt 0.875000 0.437500
vt 0.875000 0.875000
vt 0.875000 0.375000
vt 0.875000 0.812500
vt 0.875000 0.312500
vt 0.843750 0.500000
vt 0.843750 0.437500
vt 0.843750 0.937500
vt 0.843750 0.875000
vt 0.843750 0.375000
vt 0.843750 0.812500
vt 0.843750 0.312500
vt 0.843750 0.750000
vt 0.843750 0.250000
vt 0.843750 0.687500
vt 0.843750 0.187500
vt 0.843750 0.625000
vt 0.843750 0.125000
vt 0.843750 0.562500
vt 0.843750 0.062500
vt 0.859375 1.000000
vt 0.859375 0.000000
vt 0.812500 0.250000
vt 0.812500 0.187500
vt 0.812500 0.687500
vt 0.812500 0.625000
vt 0.812500 0.125000
vt 0.812500 0.562500
vt 0.812500 0.062500
vt 0.812500 0.500000
vt 0.828125 1.000000
vt 0.812500 0.937500
vt 0.828125 0.000000
vt 0.812500 0.437500
vt 0.812500 0.875000
vt 0.812500 0.375000
vt 0.812500 0.812500
vt 0.812500 0.312500
vt 0.812500 0.750000
vt 0.781250 0.937500
vt 0.781250 0.875000
vt 0.781250 0.437500
vt 0.781250 0.375000
vt 0.781250 0.812500
vt 0.781250 0.312500
vt 0.781250 0.750000
vt 0.781250 0.250000
vt 0.781250 0.687500
vt 0.781250 0.187500
vt 0.781250 0.625000
vt 0.781250 0.125000
vt 0.781250 0.562500
vt 0.781250 0.062500
vt 0.781250 0.500000
vt 0.796875 1.000000
vt 0.796875 0.000000
vt 0.765625 1.000000
vt 0.765625 0.000000
s 0
f 480/1/1 479/2/1 20/3/1 21/4/1
f 477/5/2 3/6/2 13/7/2 14/8/2
f 481/9/3 480/1/3 21/4/3 22/10/3
f 4/11/4 477/5/4 14/8/4 15/12/4
f 482/13/5 481/9/5 22/10/5 23/14/5
f 5/15/6 4/11/6 15/12/6 16/16/6
f 474/17/7 1/18/7 9/19/7
f 8/20/8 482/13/8 23/14/8
f 6/21/9 5/15/9 16/16/9 17/22/9
f 475/23/10 474/17/10 9/19/10 10/24/10
f 478/25/11 6/21/11 17/22/11 18/26/11
f 2/27/12 475/23/12 10/24/12 11/28/12
f 7/29/13 478/25/13 18/26/13 19/30/13
f 476/31/14 2/27/14 11/28/14 12/32/14
f 479/2/15 7/29/15 19/30/15 20/3/15
f 3/6/16 476/31/16 12/32/16 13/7/16
f 20/3/17 19/30/17 34/33/17 35/34/17
f 13/7/18 12/32/18 27/35/18 28/36/18
f 21/4/19 20/3/19 35/34/19 36/37/19
f 14/8/20 13/7/20 28/36/20 29/38/20
f 22/10/21 21/4/21 36/37/21 37/39/21
f 15/12/22 14/8/22 29/38/22 30/40/22
f 23/14/23 22/10/23 37/39/23 38/41/23
f 16/16/24 15/12/24 30/40/24 31/42/24
f 9/19/25 1/43/25 24/44/25
f 8/45/26 23/14/26 38/41/26
f 17/22/27 16/16/27 31/42/27 32/46/27
f 10/24/28 9/19/28 24/44/28 25/47/28
f 18/26/29 17/22/29 32/46/29 33/48/29
f 11/28/30 10/24/30 25/47/30 26/49/30
f 19/30/31 18/26/31 33/48/31 34/33/31
f 12/32/32 11/28/32 26/49/32 27/35/32
f 24/44/33 1/50/33 39/51/33
f 8/52/34 38/41/34 53/53/34
f 32/46/35 31/42/35 46/54/35 47/55/35
f 25/47/36 24/44/36 39/51/36 40/56/36
f 33/48/37 32/46/37 47/55/37 48/57/37
f 26/49/38 25/47/38 40/56/38 41/58/38
f 34/33/39 33/48/39 48/57/39 49/59/39
f 27/35/40 26/49/40 41/58/40 42/60/40
f 35/34/41 34/33/41 49/59/41 50/61/41
f 28/36/42 27/35/42 42/60/42 43/62/42
f 36/37/43 35/34/43 50/61/43 51/63/43
f 29/38/44 28/36/44 43/62/44 44/64/44
f 37/39/45 36/37/45 51/63/45 52/65/45
f 30/40/46 29/38/46 44/64/46 45/66/46
f 38/41/47 37/39/47 52/65/47 53/53/47
f 31/42/48 30/40/48 45/66/48 46/54/48
f 43/62/49 42/60/49 57/67/49 58/68/49
f 51/63/50 50/61/50 65/69/50 66/70/50
f 44/64/51 43/62/51 58/68/51 59/71/51
f 52/65/52 51/63/52 66/70/52 67/72/52
f 45/66/53 44/64/53 59/71/53 60/73/53
f 53/53/54 52/65/54 67/72/54 68/74/54
f 46/54/55 45/66/55 60/73/55 61/75/55
f 39/51/56 1/76/56 54/77/56
f 8/78/57 53/53/57 68/74/57
f 47/55/58 46/54/58 61/75/58 62/79/58
f 40/56/59 39/51/59 54/77/59 55/80/59
f 48/57/60 47/55/60 62/79/60 63/81/60
f 41/58/61 40/56/61 55/80/61 56/82/61
f 49/59/62 48/57/62 63/81/62 64/83/62
f 42/60/63 41/58/63 56/82/63 57/67/63
f 50/61/64 49/59/64 64/83/64 65/69/64
f 62/79/65 61/75/65 76/84/65 77/85/65
f 55/80/66 54/77/66 69/86/66 70/87/66
f 63/81/67 62/79/67 77/85/67 78/88/67
f 56/82/68 55/80/68 70/87/68 71/89/68
f 64/83/69 63/81/69 78/88/69 79/90/69
f 57/67/70 56/82/70 71/89/70 72/91/70
f 65/69/71 64/83/71 79/90/71 80/92/71
f 58/68/72 57/67/72 72/91/72 73/93/72
f 66/70/73 65/69/73 80/92/73 81/94/73
f 59/71/74 58/68/74 73/93/74 74/95/74
f 67/72/75 66/70/75 81/94/75 82/96/75
f 60/73/76 59/71/76 74/95/76 75/97/76
f 68/74/77 67/72/77 82/96/77 83/98/77
f 61/75/78 60/73/78 75/97/78 76/84/78
f 54/77/79 1/99/79 69/86/79
f 8/100/80 68/74/80 83/98/80
f 81/94/81 80/92/81 95/101/81 96/102/81
f 74/95/82 73/93/82 88/103/82 89/104/82
f 82/96/83 81/94/83 96/102/83 97/105/83
f 75/97/84 74/95/84 89/104/84 90/106/84
f 83/98/85 82/96/85 97/105/85 98/107/85
f 76/84/86 75/97/86 90/106/86 91/108/86
f 69/86/87 1/109/87 84/110/87
f 8/111/88 83/98/88 98/107/88
f 77/85/89 76/84/89 91/108/89 92/112/89
f 70/87/90 69/86/90 84/110/90 85/113/90
f 78/88/91 77/85/91 92/112/91 93/114/91
f 71/89/92 70/87/92 85/113/92 86/115/92
f 79/90/93 78/88/93 93/114/93 94/116/93
f 72/91/94 71/89/94 86/115/94 87/117/94
f 80/92/95 79/90/95 94/116/95 95/101/95
f 73/93/96 72/91/96 87/117/96 88/103/96
f 93/114/97 92/112/97 107/118/97 108/119/97
f 86/115/98 85/113/98 100/120/98 101/121/98
f 94/116/99 93/114/99 108/119/99 109/122/99
f 87/117/100 86/115/100 101/121/100 102/123/100
f 95/101/101 94/116/101 109/122/101 110/124/101
f 88/103/102 87/117/102 102/123/102 103/125/102
f 96/102/103 95/101/103 110/124/103 111/126/103
f 89/104/104 88/103/104 103/125/104 104/127/104
f 97/105/105 96/102/105 111/126/105 112/128/105
f 90/106/106 89/104/106 104/127/106 105/129/106
f 98/107/107 97/105/107 112/128/107 113/130/107
f 91/108/108 90/106/108 105/129/108 106/131/108
f 84/110/109 1/132/109 99/133/109
f 8/134/110 98/107/110 113/130/110
f 92/112/111 91/108/111 106/131/111 107/118/111
f 85/113/112 84/110/112 99/133/112 100/120/112
f 112/128/113 111/126/113 126/135/113 127/136/113
f 105/129/114 104/127/114 119/137/114 120/138/114
f 113/130/115 112/128/115 127/136/115 128/139/115
f 106/131/116 105/129/116 120/138/116 121/140/116
f 99/133/117 1/141/117 114/142/117
f 8/143/118 113/130/118 128/139/118
f 107/118/119 106/131/119 121/140/119 122/144/119
f 100/120/120 99/133/120 114/142/120 115/145/120
f 108/119/121 107/118/121 122/144/121 123/146/121
f 101/121/122 100/120/122 115/145/122 116/147/122
f 109/122/123 108/119/123 123/146/123 124/148/123
f 102/123/124 101/121/124 116/147/124 117/149/124
f 110/124/125 109/122/125 124/148/125 125/150/125
f 103/125/126 102/123/126 117/149/126 118/151/126
f 111/126/127 110/124/127 125/150/127 126/135/127
f 104/127/128 103/125/128 118/151/128 119/137/128
f 116/147/129 115/145/129 130/152/129 131/153/129
f 124/148/130 123/146/130 138/154/130 139/155/130
f 117/149/131 116/147/131 131/153/131 132/156/131
f 125/150/132 124/148/132 139/155/132 140/157/132
f 118/151/133 117/149/133 132/156/133 133/158/133
f 126/135/134 125/150/134 140/157/134 141/159/134
f 119/137/135 118/151/135 133/158/135 134/160/135
f 127/136/136 126/135/136 141/159/136 142/161/136
f 120/138/137 119/137/137 134/160/137 135/162/137
f 128/139/138 127/136/138 142/161/138 143/163/138
f 121/140/139 120/138/139 135/162/139 136/164/139
f 114/142/140 1/165/140 129/166/140
f 8/167/141 128/139/141 143/163/141
f 122/144/142 121/140/142 136/164/142 137/168/142
f 115/145/143 114/142/143 129/166/143 130/152/143
f 123/146/144 122/144/144 137/168/144 138/154/144
f 135/162/145 134/160/145 149/169/145 150/170/145
f 143/163/146 142/161/146 157/171/146 158/172/146
f 136/164/147 135/162/147 150/170/147 151/173/147
f 129/166/148 1/174/148 144/175/148
f 8/176/149 143/163/149 158/172/149
f 137/168/150 136/164/150 151/173/150 152/177/150
f 130/152/151 129/166/151 144/175/151 145/178/151
f 138/154/152 137/168/152 152/177/152 153/179/152
f 131/153/153 130/152/153 145/178/153 146/180/153
f 139/155/154 138/154/154 153/179/154 154/181/154
f 132/156/155 131/153/155 146/180/155 147/182/155
f 140/157/156 139/155/156 154/181/156 155/183/156
f 133/158/157 132/156/157 147/182/157 148/184/157
f 141/159/158 140/157/158 155/183/158 156/185/158
f 134/160/159 133/158/159 148/184/159 149/169/159
f 142/161/160 141/159/160 156/185/160 157/171/160
f 154/181/161 153/179/161 168/186/161 169/187/161
f 147/182/162 146/180/162 161/188/162 162/189/162
f 155/183/163 154/181/163 169/187/163 170/190/163
f 148/184/164 147/182/164 162/189/164 163/191/164
f 156/185/165 155/183/165 170/190/165 171/192/165
f 149/169/166 148/184/166 163/191/166 164/193/166
f 157/171/167 156/185/167 171/192/167 172/194/167
f 150/170/168 149/169/168 164/193/168 165/195/168
f 158/172/169 157/171/169 172/194/169 173/196/169
f 151/173/170 150/170/170 165/195/170 166/197/170
f 144/175/171 1/198/171 159/199/171
f 8/200/172 158/172/172 173/196/172
f 152/177/173 151/173/173 166/197/173 167/201/173
f 145/178/174 144/175/174 159/199/174 160/202/174
f 153/179/175 152/177/175 167/201/175 168/186/175
f 146/180/176 145/178/176 160/202/176 161/188/176
f 173/196/177 172/194/177 187/203/177 188/204/177
f 166/197/178 165/195/178 180/205/178 181/206/178
f 159/199/179 1/207/179 174/208/179
f 8/209/180 173/196/180 188/204/180
f 167/201/181 166/197/181 181/206/181 182/210/181
f 160/202/182 159/199/182 174/208/182 175/211/182
f 168/186/183 167/201/183 182/210/183 183/212/183
f 161/188/184 160/202/184 175/211/184 176/213/184
f 169/187/185 168/186/185 183/212/185 184/214/185
f 162/189/186 161/188/186 176/213/186 177/215/186
f 170/190/187 169/187/187 184/214/187 185/216/187
f 163/191/188 162/189/188 177/215/188 178/217/188
f 171/192/189 170/190/189 185/216/189 186/218/189
f 164/193/190 163/191/190 178/217/190 179/219/190
f 172/194/191 171/192/191 186/218/191 187/203/191
f 165/195/192 164/193/192 179/219/192 180/205/192
f 177/215/193 176/213/193 191/220/193 192/221/193
f 185/216/194 184/214/194 199/222/194 200/223/194
f 178/217/195 177/215/195 192/221/195 193/224/195
f 186/218/196 185/216/196 200/223/196 201/225/196
f 179/219/197 178/217/197 193/224/197 194/226/197
f 187/203/198 186/218/198 201/225/198 202/227/198
f 180/205/199 179/219/199 194/226/199 195/228/199
f 188/204/200 187/203/200 202/227/200 203/229/200
f 181/206/201 180/205/201 195/228/201 196/230/201
f 174/208/202 1/231/202 189/232/202
f 8/233/203 188/204/203 203/229/203
f 182/210/204 181/206/204 196/230/204 197/234/204
f 175/211/205 174/208/205 189/232/205 190/235/205
f 183/212/206 182/210/206 197/234/206 198/236/206
f 176/213/207 175/211/207 190/235/207 191/220/207
f 184/214/208 183/212/208 198/236/208 199/222/208
f 196/230/209 195/228/209 210/237/209 211/238/209
f 189/232/210 1/239/210 204/240/210
f 8/241/211 203/229/211 218/242/211
f 197/234/212 196/230/212 211/238/212 212/243/212
f 190/235/213 189/232/213 204/240/213 205/244/213
f 198/236/214 197/234/214 212/243/214 213/245/214
f 191/220/215 190/235/215 205/244/215 206/246/215
f 199/222/216 198/236/216 213/245/216 214/247/216
f 192/221/217 191/220/217 206/246/217 207/248/217
f 200/223/218 199/222/218 214/247/218 215/249/218
f 193/224/219 192/221/219 207/248/219 208/250/219
f 201/225/220 200/223/220 215/249/220 216/251/220
f 194/226/221 193/224/221 208/250/221 209/252/221
f 202/227/222 201/225/222 216/251/222 217/253/222
f 195/228/223 194/226/223 209/252/223 210/237/223
f 203/229/224 202/227/224 217/253/224 218/242/224
f 215/249/225 214/247/225 229/254/225 230/255/225
f 208/250/226 207/248/226 222/256/226 223/257/226
f 216/251/227 215/249/227 230/255/227 231/258/227
f 209/252/228 208/250/228 223/257/228 224/259/228
f 217/253/229 216/251/229 231/258/229 232/260/229
f 210/237/230 209/252/230 224/259/230 225/261/230
f 218/242/231 217/253/231 232/260/231 233/262/231
f 211/238/232 210/237/232 225/261/232 226/263/232
f 204/240/233 1/264/233 219/265/233
f 8/266/234 218/242/234 233/262/234
f 212/243/235 211/238/235 226/263/235 227/267/235
f 205/244/236 204/240/236 219/265/236 220/268/236
f 213/245/237 212/243/237 227/267/237 228/269/237
f 206/246/238 205/244/238 220/268/238 221/270/238
f 214/247/239 213/245/239 228/269/239 229/254/239
f 207/248/240 206/246/240 221/270/240 222/256/240
f 8/271/241 233/262/241 248/272/241
f 227/267/242 226/263/242 241/273/242 242/274/242
f 220/268/243 219/265/243 234/275/243 235/276/243
f 228/269/244 227/267/244 242/274/244 243/277/244
f 221/270/245 220/268/245 235/276/245 236/278/245
f 229/254/246 228/269/246 243/277/246 244/279/246
f 222/256/247 221/270/247 236/278/247 237/280/247
f 230/255/248 229/254/248 244/279/248 245/281/248
f 223/257/249 222/256/249 237/280/249 238/282/249
f 231/258/250 230/255/250 245/281/250 246/283/250
f 224/259/251 223/257/251 238/282/251 239/284/251
f 232/260/252 231/258/252 246/283/252 247/285/252
f 225/261/253 224/259/253 239/284/253 240/286/253
f 233/262/254 232/260/254 247/285/254 248/272/254
f 226/263/255 225/261/255 240/286/255 241/273/255
f 219/265/256 1/287/256 234/275/256
f 246/283/257 245/281/257 260/288/257 261/289/257
f 239/284/258 238/282/258 253/290/258 254/291/258
f 247/285/259 246/283/259 261/289/259 262/292/259
f 240/286/260 239/284/260 254/291/260 255/293/260
f 248/272/261 247/285/261 262/292/261 263/294/261
f 241/273/262 240/286/262 255/293/262 256/295/262
f 234/275/263 1/296/263 249/297/263
f 8/298/264 248/272/264 263/294/264
f 242/274/265 241/273/265 256/295/265 257/299/265
f 235/276/266 234/275/266 249/297/266 250/300/266
f 243/277/267 242/274/267 257/299/267 258/301/267
f 236/278/268 235/276/268 250/300/268 251/302/268
f 244/279/269 243/277/269 258/301/269 259/303/269
f 237/280/270 236/278/270 251/302/270 252/304/270
f 245/281/271 244/279/271 259/303/271 260/288/271
f 238/282/272 237/280/272 252/304/272 253/290/272
f 250/300/273 249/297/273 264/305/273 265/306/273
f 258/301/274 257/299/274 272/307/274 273/308/274
f 251/302/275 250/300/275 265/306/275 266/309/275
f 259/303/276 258/301/276 273/308/276 274/310/276
f 252/304/277 251/302/277 266/309/277 267/311/277
f 260/288/278 259/303/278 274/310/278 275/312/278
f 253/290/279 252/304/279 267/311/279 268/313/279
f 261/289/280 260/288/280 275/312/280 276/314/280
f 254/291/281 253/290/281 268/313/281 269/315/281
f 262/292/282 261/289/282 276/314/282 277/316/282
f 255/293/283 254/291/283 269/315/283 270/317/283
f 263/294/284 262/292/284 277/316/284 278/318/284
f 256/295/285 255/293/285 270/317/285 271/319/285
f 249/297/286 1/320/286 264/305/286
f 8/321/287 263/294/287 278/318/287
f 257/299/288 256/295/288 271/319/288 272/307/288
f 269/315/289 268/313/289 283/322/289 284/323/289
f 277/316/290 276/314/290 291/324/290 292/325/290
f 270/317/291 269/315/291 284/323/291 285/326/291
f 278/318/292 277/316/292 292/325/292 293/327/292
f 271/319/293 270/317/293 285/326/293 286/328/293
f 264/305/294 1/329/294 279/330/294
f 8/331/295 278/318/295 293/327/295
f 272/307/296 271/319/296 286/328/296 287/332/296
f 265/306/297 264/305/297 279/330/297 280/333/297
f 273/308/298 272/307/298 287/332/298 288/334/298
f 266/309/299 265/306/299 280/333/299 281/335/299
f 274/310/300 273/308/300 288/334/300 289/336/300
f 267/311/301 266/309/301 281/335/301 282/337/301
f 275/312/302 274/310/302 289/336/302 290/338/302
f 268/313/303 267/311/303 282/337/303 283/322/303
f 276/314/304 275/312/304 290/338/304 291/324/304
f 288/334/305 287/332/305 302/339/305 303/340/305
f 281/335/306 280/333/306 295/341/306 296/342/306
f 289/336/307 288/334/307 303/340/307 304/343/307
f 282/337/308 281/335/308 296/342/308 297/344/308
f 290/338/309 289/336/309 304/343/309 305/345/309
f 283/322/310 282/337/310 297/344/310 298/346/310
f 291/324/311 290/338/311 305/345/311 306/347/311
f 284/323/312 283/322/312 298/346/312 299/348/312
f 292/325/313 291/324/313 306/347/313 307/349/313
f 285/326/314 284/323/314 299/348/314 300/350/314
f 293/327/315 292/325/315 307/349/315 308/351/315
f 286/328/316 285/326/316 300/350/316 301/352/316
f 279/330/317 1/353/317 294/354/317
f 8/355/318 293/327/318 308/351/318
f 287/332/319 286/328/319 301/352/319 302/339/319
f 280/333/320 279/330/320 294/354/320 295/341/320
f 307/349/321 306/347/321 321/356/321 322/357/321
f 300/350/322 299/348/322 314/358/322 315/359/322
f 308/351/323 307/349/323 322/357/323 323/360/323
f 301/352/324 300/350/324 315/359/324 316/361/324
f 294/354/325 1/362/325 309/363/325
f 8/364/326 308/351/326 323/360/326
f 302/339/327 301/352/327 316/361/327 317/365/327
f 295/341/328 294/354/328 309/363/328 310/366/328
f 303/340/329 302/339/329 317/365/329 318/367/329
f 296/342/330 295/341/330 310/366/330 311/368/330
f 304/343/331 303/340/331 318/367/331 319/369/331
f 297/344/332 296/342/332 311/368/332 312/370/332
f 305/345/333 304/343/333 319/369/333 320/371/333
f 298/346/334 297/344/334 312/370/334 313/372/334
f 306/347/335 305/345/335 320/371/335 321/356/335
f 299/348/336 298/346/336 313/372/336 314/358/336
f 311/368/337 310/366/337 325/373/337 326/374/337
f 319/369/338 318/367/338 333/375/338 334/376/338
f 312/370/339 311/368/339 326/374/339 327/377/339
f 320/371/340 319/369/340 334/376/340 335/378/340
f 313/372/341 312/370/341 327/377/341 328/379/341
f 321/356/342 320/371/342 335/378/342 336/380/342
f 314/358/343 313/372/343 328/379/343 329/381/343
f 322/357/344 321/356/344 336/380/344 337/382/344
f 315/359/345 314/358/345 329/381/345 330/383/345
f 323/360/346 322/357/346 337/382/346 338/384/346
f 316/361/347 315/359/347 330/383/347 331/385/347
f 309/363/348 1/386/348 324/387/348
f 8/388/349 323/360/349 338/384/349
f 317/365/350 316/361/350 331/385/350 332/389/350
f 310/366/351 309/363/351 324/387/351 325/373/351
f 318/367/352 317/365/352 332/389/352 333/375/352
f 330/383/353 329/381/353 344/390/353 345/391/353
f 338/384/354 337/382/354 352/392/354 353/393/354
f 331/385/355 330/383/355 345/391/355 346/394/355
f 324/387/356 1/395/356 339/396/356
f 8/397/357 338/384/357 353/393/357
f 332/389/358 331/385/358 346/394/358 347/398/358
f 325/373/359 324/387/359 339/396/359 340/399/359
f 333/375/360 332/389/360 347/398/360 348/400/360
f 326/374/361 325/373/361 340/399/361 341/401/361
f 334/376/362 333/375/362 348/400/362 349/402/362
f 327/377/363 326/374/363 341/401/363 342/403/363
f 335/378/364 334/376/364 349/402/364 350/404/364
f 328/379/365 327/377/365 342/403/365 343/405/365
f 336/380/366 335/378/366 350/404/366 351/406/366
f 329/381/367 328/379/367 343/405/367 344/390/367
f 337/382/368 336/380/368 351/406/368 352/392/368
f 349/402/369 348/400/369 363/407/369 364/408/369
f 342/403/370 341/401/370 356/409/370 357/410/370
f 350/404/371 349/402/371 364/408/371 365/411/371
f 343/405/372 342/403/372 357/410/372 358/412/372
f 351/406/373 350/404/373 365/411/373 366/413/373
f 344/390/374 343/405/374 358/412/374 359/414/374
f 352/392/375 351/406/375 366/413/375 367/415/375
f 345/391/376 344/390/376 359/414/376 360/416/376
f 353/393/377 352/392/377 367/415/377 368/417/377
f 346/394/378 345/391/378 360/416/378 361/418/378
f 339/396/379 1/419/379 354/420/379
f 8/421/380 353/393/380 368/417/380
f 347/398/381 346/394/381 361/418/381 362/422/381
f 340/399/382 339/396/382 354/420/382 355/423/382
f 348/400/383 347/398/383 362/422/383 363/407/383
f 341/401/384 340/399/384 355/423/384 356/409/384
f 368/424/385 367/425/385 382/426/385 383/427/385
f 361/428/386 360/429/386 375/430/386 376/431/386
f 354/432/387 1/433/387 369/434/387
f 8/435/388 368/424/388 383/427/388
f 362/436/389 361/428/389 376/431/389 377/437/389
f 355/438/390 354/432/390 369/434/390 370/439/390
f 363/440/391 362/436/391 377/437/391 378/441/391
f 356/442/392 355/438/392 370/439/392 371/443/392
f 364/444/393 363/440/393 378/441/393 379/445/393
f 357/446/394 356/442/394 371/443/394 372/447/394
f 365/448/395 364/444/395 379/445/395 380/449/395
f 358/450/396 357/446/396 372/447/396 373/451/396
f 366/452/397 365/448/397 380/449/397 381/453/397
f 359/454/398 358/450/398 373/451/398 374/455/398
f 367/425/399 366/452/399 381/453/399 382/426/399
f 360/429/400 359/454/400 374/455/400 375/430/400
f 380/449/401 379/445/401 394/456/401 395/457/401
f 373/451/402 372/447/402 387/458/402 388/459/402
f 381/453/403 380/449/403 395/457/403 396/460/403
f 374/455/404 373/451/404 388/459/404 389/461/404
f 382/426/405 381/453/405 396/460/405 397/462/405
f 375/430/406 374/455/406 389/461/406 390/463/406
f 383/427/407 382/426/407 397/462/407 398/464/407
f 376/431/408 375/430/408 390/463/408 391/465/408
f 369/434/409 1/466/409 384/467/409
f 8/468/410 383/427/410 398/464/410
f 377/437/411 376/431/411 391/465/411 392/469/411
f 370/439/412 369/434/412 384/467/412 385/470/412
f 378/441/413 377/437/413 392/469/413 393/471/413
f 371/443/414 370/439/414 385/470/414 386/472/414
f 379/445/415 378/441/415 393/471/415 394/456/415
f 372/447/416 371/443/416 386/472/416 387/458/416
f 384/467/417 1/473/417 399/474/417
f 8/475/418 398/464/418 413/476/418
f 392/469/419 391/465/419 406/477/419 407/478/419
f 385/470/420 384/467/420 399/474/420 400/479/420
f 393/471/421 392/469/421 407/478/421 408/480/421
f 386/472/422 385/470/422 400/479/422 401/481/422
f 394/456/423 393/471/423 408/480/423 409/482/423
f 387/458/424 386/472/424 401/481/424 402/483/424
f 395/457/425 394/456/425 409/482/425 410/484/425
f 388/459/426 387/458/426 402/483/426 403/485/426
f 396/460/427 395/457/427 410/484/427 411/486/427
f 389/461/428 388/459/428 403/485/428 404/487/428
f 397/462/429 396/460/429 411/486/429 412/488/429
f 390/463/430 389/461/430 404/487/430 405/489/430
f 398/464/431 397/462/431 412/488/431 413/476/431
f 391/465/432 390/463/432 405/489/432 406/477/432
f 403/485/433 402/483/433 417/490/433 418/491/433
f 411/486/434 410/484/434 425/492/434 426/493/434
f 404/487/435 403/485/435 418/491/435 419/494/435
f 412/488/436 411/486/436 426/493/436 427/495/436
f 405/489/437 404/487/437 419/494/437 420/496/437
f 413/476/438 412/488/438 427/495/438 428/497/438
f 406/477/439 405/489/439 420/496/439 421/498/439
f 399/474/440 1/499/440 414/500/440
f 8/501/441 413/476/441 428/497/441
f 407/478/442 406/477/442 421/498/442 422/502/442
f 400/479/443 399/474/443 414/500/443 415/503/443
f 408/480/444 407/478/444 422/502/444 423/504/444
f 401/481/445 400/479/445 415/503/445 416/505/445
f 409/482/446 408/480/446 423/504/446 424/506/446
f 402/483/447 401/481/447 416/505/447 417/490/447
f 410/484/448 409/482/448 424/506/448 425/492/448
f 422/502/449 421/498/449 436/507/449 437/508/449
f 415/503/450 414/500/450 429/509/450 430/510/450
f 423/504/451 422/502/451 437/508/451 438/511/451
f 416/505/452 415/503/452 430/510/452 431/512/452
f 424/506/453 423/504/453 438/511/453 439/513/453
f 417/490/454 416/505/454 431/512/454 432/514/454
f 425/492/455 424/506/455 439/513/455 440/515/455
f 418/491/456 417/490/456 432/514/456 433/516/456
f 426/493/457 425/492/457 440/515/457 441/517/457
f 419/494/458 418/491/458 433/516/458 434/518/458
f 427/495/459 426/493/459 441/517/459 442/519/459
f 420/496/460 419/494/460 434/518/460 435/520/460
f 428/497/461 427/495/461 442/519/461 443/521/461
f 421/498/462 420/496/462 435/520/462 436/507/462
f 414/500/463 1/522/463 429/509/463
f 8/523/464 428/497/464 443/521/464
f 441/517/465 440/515/465 455/524/465 456/525/465
f 434/518/466 433/516/466 448/526/466 449/527/466
f 442/519/467 441/517/467 456/525/467 457/528/467
f 435/520/468 434/518/468 449/527/468 450/529/468
f 443/521/469 442/519/469 457/528/469 458/530/469
f 436/507/470 435/520/470 450/529/470 451/531/470
f 429/509/471 1/532/471 444/533/471
f 8/534/472 443/521/472 458/530/472
f 437/508/473 436/507/473 451/531/473 452/535/473
f 430/510/474 429/509/474 444/533/474 445/536/474
f 438/511/475 437/508/475 452/535/475 453/537/475
f 431/512/476 430/510/476 445/536/476 446/538/476
f 439/513/477 438/511/477 453/537/477 454/539/477
f 432/514/478 431/512/478 446/538/478 447/540/478
f 440/515/479 439/513/479 454/539/479 455/524/479
f 433/516/480 432/514/480 447/540/480 448/526/480
f 445/536/481 444/533/481 459/541/481 460/542/481
f 453/537/482 452/535/482 467/543/482 468/544/482
f 446/538/483 445/536/483 460/542/483 461/545/483
f 454/539/484 453/537/484 468/544/484 469/546/484
f 447/540/485 446/538/485 461/545/485 462/547/485
f 455/524/486 454/539/486 469/546/486 470/548/486
f 448/526/487 447/540/487 462/547/487 463/549/487
f 456/525/488 455/524/488 470/548/488 471/550/488
f 449/527/489 448/526/489 463/549/489 464/551/489
f 457/528/490 456/525/490 471/550/490 472/552/490
f 450/529/491 449/527/491 464/551/491 465/553/491
f 458/530/492 457/528/492 472/552/492 473/554/492
f 451/531/493 450/529/493 465/553/493 466/555/493
f 444/533/494 1/556/494 459/541/494
f 8/557/495 458/530/495 473/554/495
f 452/535/496 451/531/496 466/555/496 467/543/496
f 464/551/497 463/549/497 3/6/497 477/5/497
f 472/552/498 471/550/498 480/1/498 481/9/498
f 465/553/499 464/551/499 477/5/499 4/11/499
f 473/554/500 472/552/500 481/9/500 482/13/500
f 466/555/501 465/553/501 4/11/501 5/15/501
f 459/541/502 1/558/502 474/17/502
f 8/559/503 473/554/503 482/13/503
f 467/543/504 466/555/504 5/15/504 6/21/504
f 460/542/505 459/541/505 474/17/505 475/23/505
f 468/544/506 467/543/506 6/21/506 478/25/506
f 461/545/507 460/542/507 475/23/507 2/27/507
f 469/546/508 468/544/508 478/25/508 7/29/508
f 462/547/509 461/545/509 2/27/509 476/31/509
f 470/548/510 469/546/510 7/29/510 479/2/510
f 463/549/511 462/547/511 476/31/511 3/6/511
f 471/550/512 470/548/512 479/2/512 480/1/512
